<?xml version="1.0" encoding="utf-8"?>
<!-- Generator: Adobe Illustrator 23.0.6, SVG Export Plug-In . SVG Version: 6.00 Build 0)  -->
<svg version="1.1" id="Layer_1" xmlns="http://www.w3.org/2000/svg" xmlns:xlink="http://www.w3.org/1999/xlink" x="0px" y="0px"
	 viewBox="0 0 12 12" style="enable-background:new 0 0 12 12;" xml:space="preserve">
<style type="text/css">
	.st0{fill:#44464A;}
</style>
<path class="st0" d="M7.9,6C7.9,7,7,7.9,6,7.9S4.1,7,4.1,6c0-0.1,0-0.2,0-0.3H3.5v2.5c0,0.2,0.1,0.3,0.3,0.3h4.3
	c0.2,0,0.3-0.1,0.3-0.3V5.7H7.9C7.9,5.8,7.9,5.9,7.9,6z M6,7.2c0.7,0,1.2-0.5,1.2-1.2S6.7,4.8,6,4.8S4.8,5.3,4.8,6S5.3,7.2,6,7.2z
	 M7.4,4.7h0.7c0.1,0,0.2-0.1,0.2-0.2V3.7c0-0.1-0.1-0.2-0.2-0.2H7.4c-0.1,0-0.2,0.1-0.2,0.2v0.7C7.3,4.7,7.3,4.7,7.4,4.7z M6,0
	C2.7,0,0,2.7,0,6s2.7,6,6,6s6-2.7,6-6l0,0C12,2.7,9.3,0,6,0z M9.1,8.4c0,0.4-0.3,0.7-0.7,0.7H3.6c-0.4,0-0.7-0.3-0.7-0.7V3.6
	c0-0.4,0.3-0.7,0.7-0.7h4.9c0.3,0,0.6,0.3,0.6,0.7V8.4z"/>
</svg>
