<?xml version="1.0" encoding="utf-8"?>
<!-- Generator: Adobe Illustrator 23.0.6, SVG Export Plug-In . SVG Version: 6.00 Build 0)  -->
<svg version="1.1" id="Layer_1" xmlns="http://www.w3.org/2000/svg" xmlns:xlink="http://www.w3.org/1999/xlink" x="0px" y="0px"
	 viewBox="0 0 512 512" style="enable-background:new 0 0 512 512;" xml:space="preserve">
<style type="text/css">
	.st0{fill:#44464A;}
</style>
<path class="st0" d="M256,0C114.8,0,0,114.8,0,256s114.8,256,256,256s256-114.8,256-256S397.2,0,256,0z M377.7,377.7
	c-8.3,8.3-21.8,8.3-30.2,0l-57.1-57.1c-53.4,36.8-126.6,23.3-163.3-30.2s-23.3-126.6,30.2-163.3s126.6-23.3,163.3,30.2
	c27.6,40.1,27.6,93.1,0,133.1l57.1,57.1C386.1,355.9,386.1,369.4,377.7,377.7L377.7,377.7z"/>
<circle class="st0" cx="224" cy="224" r="74.7"/>
</svg>
