<?xml version="1.0" encoding="utf-8"?>
<!-- Generator: Adobe Illustrator 23.0.6, SVG Export Plug-In . SVG Version: 6.00 Build 0)  -->
<svg version="1.1" id="Layer_1" xmlns="http://www.w3.org/2000/svg" xmlns:xlink="http://www.w3.org/1999/xlink" x="0px" y="0px"
	 viewBox="0 0 512 512" style="enable-background:new 0 0 512 512;" xml:space="preserve">
<style type="text/css">
	.st0{fill:#B6B9B8;}
	.st1{fill:#44464A;}
</style>
<g id="XMLID_1_">
	<g>
		<path class="st0" d="M347.3,324.7c6.2,6.3,6.2,16.4,0,22.6c-6.3,6.2-16.4,6.2-22.6,0l-42.8-42.8c-40.1,27.6-94.9,17.4-122.5-22.6
			c-27.6-40.1-17.4-94.9,22.6-122.5c40.1-27.6,94.9-17.4,122.5,22.6c20.7,30.1,20.7,69.8,0,99.9L347.3,324.7z M288,232
			c0-30.9-25.1-56-56-56s-56,25.1-56,56s25.1,56,56,56S288,262.9,288,232z"/>
		<path class="st1" d="M256,64c105.9,0,192,86.1,192,192s-86.1,192-192,192S64,361.9,64,256S150.1,64,256,64z M347.3,347.3
			c6.2-6.3,6.2-16.4,0-22.6l-42.8-42.8c20.7-30.1,20.7-69.8,0-99.9c-27.6-40.1-82.4-50.2-122.5-22.6
			c-40.1,27.6-50.2,82.4-22.6,122.5c27.6,40.1,82.4,50.2,122.5,22.6l42.8,42.8C330.9,353.5,341.1,353.5,347.3,347.3z"/>
		<circle class="st1" cx="232" cy="232" r="56"/>
	</g>
	<g>
	</g>
</g>
</svg>
