<?xml version="1.0" encoding="utf-8"?>
<!-- Generator: Adobe Illustrator 23.0.6, SVG Export Plug-In . SVG Version: 6.00 Build 0)  -->
<svg version="1.1" id="Layer_1" xmlns="http://www.w3.org/2000/svg" xmlns:xlink="http://www.w3.org/1999/xlink" x="0px" y="0px"
	 viewBox="0 0 11.6 12" style="enable-background:new 0 0 11.6 12;" xml:space="preserve">
<style type="text/css">
	.st0{fill:#44464A;}
</style>
<path class="st0" d="M5.8,0.2C2.6,0.2,0,2.8,0,6s2.6,5.8,5.8,5.8s5.8-2.6,5.8-5.8S9,0.2,5.8,0.2z M8.7,4.2l-1,4.5
	C7.7,9,7.5,9.1,7.2,8.9L5.7,7.8L5,8.5C5,8.6,4.9,8.7,4.7,8.7l0.1-1.5l2.7-2.4c0.1-0.1,0-0.2-0.2-0.1L4,6.8L2.6,6.3
	C2.3,6.2,2.3,6,2.7,5.9l5.6-2.2C8.5,3.6,8.8,3.8,8.7,4.2z"/>
</svg>
