<?xml version="1.0" encoding="utf-8"?>
<!-- Generator: Adobe Illustrator 23.0.6, SVG Export Plug-In . SVG Version: 6.00 Build 0)  -->
<svg version="1.1" id="Layer_1" xmlns="http://www.w3.org/2000/svg" xmlns:xlink="http://www.w3.org/1999/xlink" x="0px" y="0px"
	 viewBox="0 0 12 12" style="enable-background:new 0 0 12 12;" xml:space="preserve">
<style type="text/css">
	.st0{fill:#44464A;}
</style>
<path class="st0" d="M6,0C2.7,0,0,2.7,0,6s2.7,6,6,6s6-2.7,6-6S9.3,0,6,0 M2.1,3.9H3c0.2,0,0.3,0.1,0.4,0.3c0.4,1.3,1.2,2.4,1.5,2.4
	C5,6.6,5,6.6,5,6.3V5c0-0.6-0.4-0.7-0.4-0.9c0-0.1,0.1-0.2,0.2-0.2h1.4c0.2,0,0.3,0.1,0.3,0.3V6c0,0.2,0.1,0.3,0.1,0.3
	c0.1,0,0.2-0.1,0.4-0.3c0.6-0.7,1.1-1.8,1.1-1.8C8.2,4,8.3,3.9,8.5,3.9h0.9c0.3,0,0.3,0.1,0.3,0.3c-0.1,0.5-1.2,2-1.2,2
	c-0.1,0.1-0.1,0.2,0,0.4C8.6,6.8,8.9,7,9.1,7.3c0.4,0.4,0.7,0.8,0.8,1c0.1,0.3-0.1,0.4-0.3,0.4H8.7c-0.3,0-0.4-0.3-1-0.9
	C7.1,7.3,6.9,7.3,6.8,7.3c-0.2,0-0.2,0-0.2,0.3v0.8c0,0.2-0.1,0.3-0.6,0.3c-0.9,0-2-0.6-2.7-1.6C2.1,5.5,1.8,4.4,1.8,4.2
	C1.8,4,1.8,3.9,2.1,3.9z"/>
</svg>
